<svg width="317" height="317" viewBox="0 0 317 317" fill="none" xmlns="http://www.w3.org/2000/svg">
<path fill-rule="evenodd" clip-rule="evenodd" d="M210.145 269.187C254.248 249.576 285 205.379 285 154C285 147.492 275.278 146.355 271.667 151.769C257.585 172.888 233.683 186.898 206.486 187.275L206.914 196.874C221.337 197.972 232.698 210.022 232.698 224.726C232.698 238.578 222.616 250.075 209.39 252.279L210.145 269.187ZM147.33 279.467C83.2128 273.578 33 219.653 33 154C33 84.4121 89.4121 28 159 28C165.508 28 166.645 37.7222 161.231 41.3327C139.821 55.6089 125.717 79.9781 125.717 107.642C125.717 130.878 135.668 151.79 151.541 166.349L147.33 279.467ZM138.792 210.462C138.792 225.89 126.286 238.396 110.858 238.396C95.431 238.396 82.9245 225.89 82.9245 210.462C82.9245 195.035 95.431 182.528 110.858 182.528C126.286 182.528 138.792 195.035 138.792 210.462ZM87.0849 146.868C102.512 146.868 115.019 134.361 115.019 118.934C115.019 103.506 102.512 91 87.0849 91C71.6574 91 59.1509 103.506 59.1509 118.934C59.1509 134.361 71.6574 146.868 87.0849 146.868Z" fill="#E17BEA"/>
<path fill-rule="evenodd" clip-rule="evenodd" d="M199.174 79.9196C198.702 79.5174 198.292 79.0461 197.982 78.5091L183.445 53.3302C181.52 49.9969 176.709 49.9969 174.784 53.3302L160.967 77.2622C160.608 77.8843 160.115 78.417 159.544 78.853C151.988 84.6241 147.113 93.7276 147.113 103.97C147.113 121.414 161.254 135.555 178.698 135.555C196.142 135.555 210.283 121.414 210.283 103.97C210.283 102.753 210.215 101.552 210.081 100.371C210.07 100.279 210.142 100.198 210.235 100.198V100.198C210.354 100.198 210.429 100.069 210.369 99.9654L209.982 99.294C209.944 99.2289 209.919 99.1571 209.908 99.0828C208.721 91.4455 204.799 84.7133 199.174 79.9196Z" fill="#E17BEA"/>
<path d="M165.63 118.321L190.963 118.939L197.567 277.906C197.803 283.586 193.262 288.321 187.576 288.321H170.337C164.684 288.321 160.155 283.639 160.342 277.99L165.63 118.321Z" fill="#E17BEA"/>
</svg>
